<mxfile host="65bd71144e">
    <diagram id="2CDC2P1MNBgjJwS8AT2-" name="ページ1">
        <mxGraphModel dx="802" dy="456" grid="0" gridSize="10" guides="1" tooltips="1" connect="1" arrows="1" fold="1" page="1" pageScale="1" pageWidth="827" pageHeight="1169" math="0" shadow="0">
            <root>
                <mxCell id="0"/>
                <mxCell id="1" parent="0"/>
                <mxCell id="2" value="カテゴリー" style="swimlane;fontStyle=1;align=center;verticalAlign=middle;childLayout=stackLayout;horizontal=1;startSize=29;horizontalStack=0;resizeParent=1;resizeParentMax=0;resizeLast=0;collapsible=0;marginBottom=0;html=1;fillColor=#f5f5f5;gradientColor=#b3b3b3;strokeColor=#666666;fontColor=#212121;" vertex="1" parent="1">
                    <mxGeometry x="130" y="673" width="137" height="85" as="geometry"/>
                </mxCell>
                <mxCell id="3" value="・カテゴリー名&lt;br&gt;・説明" style="text;html=1;strokeColor=none;fillColor=none;align=left;verticalAlign=middle;spacingLeft=4;spacingRight=4;overflow=hidden;rotatable=0;points=[[0,0.5],[1,0.5]];portConstraint=eastwest;" vertex="1" parent="2">
                    <mxGeometry y="29" width="137" height="34" as="geometry"/>
                </mxCell>
                <mxCell id="4" value="・クイズ：hasMany" style="text;html=1;strokeColor=none;fillColor=none;align=left;verticalAlign=middle;spacingLeft=4;spacingRight=4;overflow=hidden;rotatable=0;points=[[0,0.5],[1,0.5]];portConstraint=eastwest;labelBorderColor=none;perimeterSpacing=1;" vertex="1" parent="2">
                    <mxGeometry y="63" width="137" height="22" as="geometry"/>
                </mxCell>
                <mxCell id="5" value="クイズ" style="swimlane;fontStyle=1;align=center;verticalAlign=middle;childLayout=stackLayout;horizontal=1;startSize=29;horizontalStack=0;resizeParent=1;resizeParentMax=0;resizeLast=0;collapsible=0;marginBottom=0;html=1;fillColor=#f5f5f5;gradientColor=#b3b3b3;strokeColor=#666666;fontColor=#212121;" vertex="1" parent="1">
                    <mxGeometry x="311" y="673" width="155" height="106" as="geometry"/>
                </mxCell>
                <mxCell id="6" value="・問題文&lt;br&gt;・解説" style="text;html=1;strokeColor=none;fillColor=none;align=left;verticalAlign=middle;spacingLeft=4;spacingRight=4;overflow=hidden;rotatable=0;points=[[0,0.5],[1,0.5]];portConstraint=eastwest;" vertex="1" parent="5">
                    <mxGeometry y="29" width="155" height="44" as="geometry"/>
                </mxCell>
                <mxCell id="7" value="・カテゴリー：belongsTo&lt;br&gt;・選択肢：hasMany" style="text;html=1;strokeColor=none;fillColor=none;align=left;verticalAlign=middle;spacingLeft=4;spacingRight=4;overflow=hidden;rotatable=0;points=[[0,0.5],[1,0.5]];portConstraint=eastwest;" vertex="1" parent="5">
                    <mxGeometry y="73" width="155" height="33" as="geometry"/>
                </mxCell>
                <mxCell id="8" value="選択肢" style="swimlane;fontStyle=1;align=center;verticalAlign=middle;childLayout=stackLayout;horizontal=1;startSize=29;horizontalStack=0;resizeParent=1;resizeParentMax=0;resizeLast=0;collapsible=0;marginBottom=0;html=1;fillColor=#f5f5f5;gradientColor=#b3b3b3;strokeColor=#666666;fontColor=#212121;" vertex="1" parent="1">
                    <mxGeometry x="516" y="673" width="144" height="96" as="geometry"/>
                </mxCell>
                <mxCell id="9" value="・説明文&lt;br&gt;・正解か不正解か" style="text;html=1;strokeColor=none;fillColor=none;align=left;verticalAlign=middle;spacingLeft=4;spacingRight=4;overflow=hidden;rotatable=0;points=[[0,0.5],[1,0.5]];portConstraint=eastwest;" vertex="1" parent="8">
                    <mxGeometry y="29" width="144" height="42" as="geometry"/>
                </mxCell>
                <mxCell id="10" value="・クイズ：belongsTo" style="text;html=1;strokeColor=none;fillColor=none;align=left;verticalAlign=middle;spacingLeft=4;spacingRight=4;overflow=hidden;rotatable=0;points=[[0,0.5],[1,0.5]];portConstraint=eastwest;" vertex="1" parent="8">
                    <mxGeometry y="71" width="144" height="25" as="geometry"/>
                </mxCell>
                <mxCell id="11" value="管理者" style="swimlane;fontStyle=1;align=center;verticalAlign=middle;childLayout=stackLayout;horizontal=1;startSize=29;horizontalStack=0;resizeParent=1;resizeParentMax=0;resizeLast=0;collapsible=0;marginBottom=0;html=1;fillColor=#f5f5f5;gradientColor=#b3b3b3;strokeColor=#666666;fontColor=#212121;" vertex="1" parent="1">
                    <mxGeometry x="703" y="673" width="140" height="78" as="geometry"/>
                </mxCell>
                <mxCell id="12" value="・メールアドレス&lt;br&gt;・パスワード&lt;br&gt;・名前" style="text;html=1;strokeColor=none;fillColor=none;align=left;verticalAlign=middle;spacingLeft=4;spacingRight=4;overflow=hidden;rotatable=0;points=[[0,0.5],[1,0.5]];portConstraint=eastwest;" vertex="1" parent="11">
                    <mxGeometry y="29" width="140" height="49" as="geometry"/>
                </mxCell>
                <mxCell id="14" value="プレイコントローラ" style="swimlane;fontStyle=1;align=center;verticalAlign=middle;childLayout=stackLayout;horizontal=1;startSize=29;horizontalStack=0;resizeParent=1;resizeParentMax=0;resizeLast=0;collapsible=0;marginBottom=0;html=1;fillColor=#f5f5f5;gradientColor=#b3b3b3;strokeColor=#666666;fontColor=#212121;" vertex="1" parent="1">
                    <mxGeometry x="102" y="982" width="165" height="198" as="geometry"/>
                </mxCell>
                <mxCell id="15" value="・トップ画面表示&lt;br&gt;・クイズスタート画面表示&lt;br&gt;・クイズ出題画面表示&lt;br&gt;・クイズ解答画面表示&lt;br&gt;・リザルト画面表示&lt;br&gt;・解答が正解か不正解か" style="text;html=1;strokeColor=none;fillColor=none;align=left;verticalAlign=middle;spacingLeft=4;spacingRight=4;overflow=hidden;rotatable=0;points=[[0,0.5],[1,0.5]];portConstraint=eastwest;" vertex="1" parent="14">
                    <mxGeometry y="29" width="165" height="169" as="geometry"/>
                </mxCell>
                <mxCell id="17" value="ログインコントローラー" style="swimlane;fontStyle=1;align=center;verticalAlign=middle;childLayout=stackLayout;horizontal=1;startSize=29;horizontalStack=0;resizeParent=1;resizeParentMax=0;resizeLast=0;collapsible=0;marginBottom=0;html=1;fillColor=#f5f5f5;gradientColor=#b3b3b3;strokeColor=#666666;fontColor=#212121;" vertex="1" parent="1">
                    <mxGeometry x="314" y="980" width="165" height="198" as="geometry"/>
                </mxCell>
                <mxCell id="18" value="・ログイン画面表示&lt;br&gt;・ログイン処理&lt;br&gt;・ログアウト処理" style="text;html=1;strokeColor=none;fillColor=none;align=left;verticalAlign=middle;spacingLeft=4;spacingRight=4;overflow=hidden;rotatable=0;points=[[0,0.5],[1,0.5]];portConstraint=eastwest;" vertex="1" parent="17">
                    <mxGeometry y="29" width="165" height="169" as="geometry"/>
                </mxCell>
                <mxCell id="19" value="カテゴリーコントローラー" style="swimlane;fontStyle=1;align=center;verticalAlign=middle;childLayout=stackLayout;horizontal=1;startSize=29;horizontalStack=0;resizeParent=1;resizeParentMax=0;resizeLast=0;collapsible=0;marginBottom=0;html=1;fillColor=#f5f5f5;gradientColor=#b3b3b3;strokeColor=#666666;fontColor=#212121;" vertex="1" parent="1">
                    <mxGeometry x="533" y="980" width="165" height="198" as="geometry"/>
                </mxCell>
                <mxCell id="20" value="・カテゴリー一覧表示&lt;br&gt;・カテゴリー新規登録画面&lt;br&gt;・カテゴリー新規登録処理&lt;br&gt;・カテゴリー編集画面&lt;br&gt;・カテゴリー更新処理&lt;br&gt;・カテゴリー詳細表示&lt;br&gt;・カテゴリー削除処理" style="text;html=1;strokeColor=none;fillColor=none;align=left;verticalAlign=middle;spacingLeft=4;spacingRight=4;overflow=hidden;rotatable=0;points=[[0,0.5],[1,0.5]];portConstraint=eastwest;" vertex="1" parent="19">
                    <mxGeometry y="29" width="165" height="169" as="geometry"/>
                </mxCell>
                <mxCell id="21" value="クイズコントローラー" style="swimlane;fontStyle=1;align=center;verticalAlign=middle;childLayout=stackLayout;horizontal=1;startSize=29;horizontalStack=0;resizeParent=1;resizeParentMax=0;resizeLast=0;collapsible=0;marginBottom=0;html=1;fillColor=#f5f5f5;gradientColor=#b3b3b3;strokeColor=#666666;fontColor=#212121;" vertex="1" parent="1">
                    <mxGeometry x="756" y="977" width="165" height="198" as="geometry"/>
                </mxCell>
                <mxCell id="22" value="・クイズ新規登録画面表示&lt;br&gt;・クイズ新規登録処理&lt;br&gt;・クイズ編集画面表示&lt;br&gt;・クイズ更新処理&lt;br&gt;・クイズ削除処理" style="text;html=1;strokeColor=none;fillColor=none;align=left;verticalAlign=middle;spacingLeft=4;spacingRight=4;overflow=hidden;rotatable=0;points=[[0,0.5],[1,0.5]];portConstraint=eastwest;" vertex="1" parent="21">
                    <mxGeometry y="29" width="165" height="169" as="geometry"/>
                </mxCell>
            </root>
        </mxGraphModel>
    </diagram>
</mxfile>